<svg xmlns="http://www.w3.org/2000/svg" width="520" height="340" viewBox="0 0 520 340">
  <defs>
    <linearGradient id="bg" x1="0%" y1="0%" x2="100%" y2="100%">
      <stop offset="0%" stop-color="#196f3d"/>
      <stop offset="100%" stop-color="#f1c40f"/>
    </linearGradient>
  </defs>
  <rect width="520" height="340" rx="16" fill="url(#bg)"/>
  <rect x="16" y="14" width="488" height="250" rx="12" fill="rgba(0,0,0,0.28)"/>
  <svg x="60" y="40" width="400" height="200" viewBox="0 0 200 120">
    
    <rect x="80" y="20" width="40" height="18" rx="3" fill="#27ae60"/>
    <text x="88" y="33" fill="#fff" font-size="9" font-family="Arial">Grass</text>
    <rect x="30" y="55" width="40" height="18" rx="3" fill="#f39c12"/>
    <text x="38" y="68" fill="#fff" font-size="9" font-family="Arial">Rabbit</text>
    <rect x="130" y="55" width="40" height="18" rx="3" fill="#e67e22"/>
    <text x="140" y="68" fill="#fff" font-size="9" font-family="Arial">Mouse</text>
    <rect x="80" y="90" width="40" height="18" rx="3" fill="#c0392b"/>
    <text x="90" y="103" fill="#fff" font-size="9" font-family="Arial">Fox</text>
    <path d="M100 38 L50 55 M100 38 L150 55 M50 73 L100 90 M150 73 L100 90" stroke="#fff" stroke-width="1.5" opacity="0.8"/>
  </svg>
  <text x="260" y="305" text-anchor="middle" font-family="Arial,Helvetica,sans-serif" font-size="20" font-weight="700" fill="#ffffff">Food Chain / Food Web</text>
</svg>
