<svg xmlns="http://www.w3.org/2000/svg" width="520" height="340" viewBox="0 0 520 340">
  <defs>
    <linearGradient id="bg" x1="0%" y1="0%" x2="100%" y2="100%">
      <stop offset="0%" stop-color="#0f766e"/>
      <stop offset="100%" stop-color="#f59e0b"/>
    </linearGradient>
  </defs>
  <rect width="520" height="340" rx="16" fill="url(#bg)"/>
  <rect x="16" y="14" width="488" height="250" rx="12" fill="rgba(0,0,0,0.28)"/>
  <!-- beaker -->
  <path d="M210 70 h100 v20 l20 140 a40 40 0 0 1 -140 0 l20 -140 z" fill="rgba(255,255,255,0.15)" stroke="#fff" stroke-width="3"/>
  <path d="M230 150 h80 l12 70 a28 28 0 0 1 -104 0 z" fill="#34d399" opacity="0.85"/>
  <!-- litmus -->
  <rect x="340" y="90" width="18" height="100" rx="3" fill="#e74c3c"/>
  <rect x="336" y="84" width="26" height="10" rx="2" fill="#94a3b8"/>
  <!-- meter -->
  <rect x="60" y="100" width="110" height="70" rx="10" fill="#0f172a"/>
  <text x="75" y="122" fill="#94a3b8" font-size="11" font-family="Arial">DIGITAL pH</text>
  <text x="75" y="152" fill="#5eead4" font-size="28" font-weight="700" font-family="Arial">7.0</text>
  <text x="260" y="305" text-anchor="middle" font-family="Arial,Helvetica,sans-serif" font-size="20" font-weight="700" fill="#ffffff">pH Laboratory</text>
</svg>
