<svg xmlns="http://www.w3.org/2000/svg" width="520" height="340" viewBox="0 0 520 340">
  <defs>
    <linearGradient id="bg" x1="0%" y1="0%" x2="100%" y2="100%">
      <stop offset="0%" stop-color="#154360"/>
      <stop offset="100%" stop-color="#85c1e9"/>
    </linearGradient>
  </defs>
  <rect width="520" height="340" rx="16" fill="url(#bg)"/>
  <rect x="16" y="14" width="488" height="250" rx="12" fill="rgba(0,0,0,0.28)"/>
  <svg x="60" y="40" width="400" height="200" viewBox="0 0 200 120">
    
    <line x1="20" y1="50" x2="90" y2="50" stroke="#bdc3c7" stroke-width="4"/>
    <line x1="30" y1="25" x2="30" y2="50" stroke="#f4d03f" stroke-width="2"/>
    <line x1="50" y1="25" x2="50" y2="50" stroke="#f4d03f" stroke-width="2"/>
    <line x1="70" y1="25" x2="70" y2="50" stroke="#f4d03f" stroke-width="2"/>
    <line x1="30" y1="50" x2="30" y2="75" stroke="#5dade2" stroke-width="2"/>
    <line x1="50" y1="50" x2="50" y2="75" stroke="#5dade2" stroke-width="2"/>
    <line x1="70" y1="50" x2="70" y2="75" stroke="#5dade2" stroke-width="2"/>
    <path d="M115 55 L175 45 L125 60 L170 70 L120 72 Z" fill="none" stroke="#bdc3c7" stroke-width="3"/>
    <line x1="125" y1="25" x2="130" y2="55" stroke="#f4d03f" stroke-width="2"/>
    <line x1="145" y1="25" x2="150" y2="50" stroke="#f4d03f" stroke-width="2"/>
    <line x1="130" y1="55" x2="120" y2="85" stroke="#5dade2" stroke-width="2"/>
    <line x1="150" y1="50" x2="175" y2="80" stroke="#5dade2" stroke-width="2"/>
    <text x="30" y="100" fill="#fff" font-size="9" font-family="Arial">regular</text>
    <text x="130" y="100" fill="#fff" font-size="9" font-family="Arial">diffuse</text>
  </svg>
  <text x="260" y="305" text-anchor="middle" font-family="Arial,Helvetica,sans-serif" font-size="20" font-weight="700" fill="#ffffff">Regular vs Diffuse Reflection</text>
</svg>
