<svg xmlns="http://www.w3.org/2000/svg" width="520" height="340" viewBox="0 0 520 340">
  <defs>
    <linearGradient id="bg" x1="0%" y1="0%" x2="100%" y2="100%">
      <stop offset="0%" stop-color="#7b241c"/>
      <stop offset="100%" stop-color="#f39c12"/>
    </linearGradient>
  </defs>
  <rect width="520" height="340" rx="16" fill="url(#bg)"/>
  <rect x="16" y="14" width="488" height="250" rx="12" fill="rgba(0,0,0,0.28)"/>
  <svg x="60" y="40" width="400" height="200" viewBox="0 0 200 120">
    
    <text x="40" y="28" fill="#f39c12" font-size="11" font-family="Arial">series</text>
    <path d="M30 45 H80 M80 35 V55 M90 35 V55 M90 45 H140" stroke="#fff" stroke-width="2" fill="none"/>
    <circle cx="55" cy="45" r="7" fill="#f4d03f"/><circle cx="115" cy="45" r="7" fill="#f4d03f"/>
    <text x="40" y="78" fill="#5dade2" font-size="11" font-family="Arial">parallel</text>
    <path d="M40 95 H70 V85 H110 V95 H150 M70 95 V105 H110 V95" stroke="#fff" stroke-width="2" fill="none"/>
    <circle cx="90" cy="85" r="6" fill="#58d68d"/><circle cx="90" cy="105" r="6" fill="#58d68d"/>
  </svg>
  <text x="260" y="305" text-anchor="middle" font-family="Arial,Helvetica,sans-serif" font-size="20" font-weight="700" fill="#ffffff">Series vs Parallel Circuits</text>
</svg>
